<?xml version="1.0" encoding="UTF-8" standalone="no"?>
<!-- Created with Inkscape (http://www.inkscape.org/) -->

<svg
   width="21.924549mm"
   height="21.924551mm"
   viewBox="0 0 21.924549 21.924551"
   version="1.1"
   id="svg1"
   xml:space="preserve"
   xmlns:inkscape="http://www.inkscape.org/namespaces/inkscape"
   xmlns:sodipodi="http://sodipodi.sourceforge.net/DTD/sodipodi-0.dtd"
   xmlns="http://www.w3.org/2000/svg"
   xmlns:svg="http://www.w3.org/2000/svg"><sodipodi:namedview
     id="namedview1"
     pagecolor="#ffffff"
     bordercolor="#000000"
     borderopacity="0.25"
     inkscape:showpageshadow="2"
     inkscape:pageopacity="0.0"
     inkscape:pagecheckerboard="0"
     inkscape:deskcolor="#d1d1d1"
     inkscape:document-units="mm"
     showguides="false" /><defs
     id="defs1" /><g
     inkscape:groupmode="layer"
     id="layer2"
     inkscape:label="back"
     transform="translate(-148.47515,-75.676946)"><circle
       style="fill:#009fd6;fill-opacity:1;stroke:none;stroke-width:0.251;stroke-linecap:round;stroke-dasharray:none;stroke-opacity:1"
       id="circle143"
       cx="159.43742"
       cy="86.639221"
       r="10.962275" /><path
       id="path143"
       style="fill:#ffffff;fill-opacity:1;stroke:none;stroke-width:0.251;stroke-linecap:round;stroke-dasharray:none;stroke-opacity:1"
       d="m 159.73878,77.899821 c -3.56648,-6.1e-5 -7.42646,2.891007 -7.42669,6.457487 -6e-5,3.566682 3.86001,6.458065 7.42669,6.458004 0.60072,-0.0011 1.39091,-0.71696 1.38813,-1.366168 -0.0104,-2.440992 -5.26173,-2.210375 -5.2631,-5.091836 0.002,-2.882328 5.12724,-2.604679 5.20162,-5.011112 0.0202,-0.653905 -0.72492,-1.445764 -1.32665,-1.446375 z"
       sodipodi:nodetypes="cccacac" /><path
       id="path144"
       style="fill:#ffffff;fill-opacity:1;stroke:none;stroke-width:0.251;stroke-linecap:round;stroke-dasharray:none;stroke-opacity:1"
       d="m 159.06028,82.80782 c 3.56648,-6.1e-5 7.42646,2.891007 7.42669,6.457487 6e-5,3.566682 -3.86001,6.458065 -7.42669,6.458004 -0.60072,-0.0011 -1.39091,-0.71696 -1.38813,-1.366168 0.0105,-2.440992 5.26173,-2.210375 5.26309,-5.091836 -0.002,-2.882328 -5.12723,-2.604679 -5.20161,-5.011112 -0.0202,-0.653905 0.72492,-1.445764 1.32665,-1.446375 z"
       sodipodi:nodetypes="cccacac" /></g></svg>
